<svg viewBox="80 140 360 280" width="420" height="300" xmlns="http://www.w3.org/2000/svg">

 <title/>
 
 <g>
  <title>Layer 1</title>
  <path fill="#1FB5DA" id="svg_1" d="m325.57,320.54a59.9,59.9 0 0 0 58.79,-52.34c3.7,-30 -17,-58.47 -46.46,-64.86l5.24,5.24c-9.07,-28.39 -33.17,-50.81 -62.81,-56a82.4,82.4 0 0 0 -82.71,35.25l8.47,-3.45c-31.4,-9.69 -66.35,3.77 -82.26,32.77c-15.16,27.65 -9.62,63.37 13.66,84.79a70.91,70.91 0 0 0 47.42,18.61c9.66,0.11 9.66,-14.89 0,-15c-24.5,-0.27 -46.36,-16.6 -52.84,-40.4a55.22,55.22 0 0 1 25.59,-61.82c13.58,-7.83 29.54,-9.09 44.43,-4.49c3.34,1 6.63,-0.74 8.47,-3.45c14.64,-21.54 41.42,-33.14 67.15,-28.1a67.05,67.05 0 0 1 50.95,45.29a7.54,7.54 0 0 0 5.24,5.24c22.53,4.89 38.5,25.75 35.61,49c-2.74,22.09 -22,38.41 -44,38.7c-9.64,0.13 -9.67,15.13 0,15l0.06,0.02z" class="cls-1"/>
  <path fill="#1FB5DA" id="svg_2" d="m211.08,320.54l89.27,0c9.65,0 9.67,-15 0,-15l-89.27,0c-9.65,0 -9.67,15 0,15z" class="cls-1"/>
  <path fill="#1FB5DA" id="svg_3" d="m307.21,277.24l-111.39,0c-9.65,0 -9.67,15 0,15l111.39,0c9.65,0 9.67,-15 0,-15z" class="cls-1"/>
  <path stroke="null" fill="#1FB5DA" id="svg_4" d="m326.436865,333.83l-135.621695,0c-13.063978,0 -13.091054,15 0,15l135.621695,0c13.063978,0 13.091054,-15 0,-15z" class="cls-1"/>
  <path stroke="null" fill="#1FB5DA" id="svg_5" d="m351.791842,357.917232l-135.62169,0c-13.06398,0 -13.09105,15 0,15l135.62169,0c13.06398,0 13.09106,-15 0,-15z" class="cls-1"/>
  <path stroke="null" fill="#1FB5DA" id="svg_6" d="m299.81413,382.004467l-135.62169,0c-13.06398,0 -13.09105,15 0,15l135.62169,0c13.06398,0 13.09106,-15 0,-15z" class="cls-1"/>
 </g>
</svg>