<svg viewBox="80 80 360 370" width="420" height="420" xmlns="http://www.w3.org/2000/svg">

 <title/>
 <g>
  <title>Layer 1</title>
  <path fill="none" id="svg_1" d="m382.67,278.93a129.69,129.69 0 0 1 -29.14,4.07a59.66,59.66 0 0 1 9,20.22a120.92,120.92 0 0 0 20.14,-24.29z" class="cls-1"/>
  <path fill="none" id="svg_2" d="m231.07,207.63a132.45,132.45 0 0 1 -8.38,-88.63a116.93,116.93 0 0 0 -50.69,68a114.58,114.58 0 0 0 -2.22,49.54a70.15,70.15 0 0 1 10.64,1.6a82.66,82.66 0 0 1 50.65,-30.51z" class="cls-1"/>
  <path fill="none" id="svg_3" d="m336.56,143.18c-0.62,1.22 -1.28,2.42 -2,3.58a53.72,53.72 0 0 1 -14.6,15.19a44.46,44.46 0 0 1 -5.27,3.16a53.33,53.33 0 0 1 11.13,7.79a50.35,50.35 0 0 1 10.71,14l0.59,-1.07a51.17,51.17 0 0 1 13.39,-15.6a51.91,51.91 0 0 1 8,-5.19a52.51,52.51 0 0 1 -21.95,-21.86z" class="cls-1"/>
  <path fill="#1FB5DA" id="svg_4" d="m363.59,162.74c-1.07,0.42 -2.13,0.87 -3.18,1.35c-0.66,0.3 -1.29,0.63 -1.92,1a54.17,54.17 0 0 0 10.4,4.2a6.79,6.79 0 0 1 -5.3,-6.55z" class="cls-2"/>
  <path fill="#1FB5DA" id="svg_5" d="m340.68,132.73l-8.31,0l0.39,1.38a15.25,15.25 0 0 0 1.18,3.36a53.92,53.92 0 0 0 2.61,5.71a61.8,61.8 0 0 0 2.55,-5.71c0.5,-1.26 1.59,-3.32 1.58,-4.74z" class="cls-2"/>
  <path fill="#1FB5DA" id="svg_6" d="m304.17,160.94l0,4.15q-2,5.08 0.69,4c1.37,0 3.4,-1.11 4.7,-1.63c1.74,-0.7 3.44,-1.46 5.1,-2.32a54.23,54.23 0 0 0 -7.76,-3.33a10.83,10.83 0 0 0 -2.73,-0.87z" class="cls-2"/>
  <path fill="#1FB5DA" id="svg_7" d="m336.53,197.46c4.86,0 4.53,1 3.54,-2.06a58.81,58.81 0 0 0 -2.25,-5.77c-0.41,-0.92 -0.85,-1.82 -1.31,-2.72c-1.54,2.8 -3.32,6.16 -3.73,9.17c-0.35,2.53 -2.15,1.38 3.75,1.38z" class="cls-2"/>
  <path fill="#1FB5DA" id="svg_8" d="m308.83,179a37.85,37.85 0 0 1 10.17,8.48a36.15,36.15 0 0 1 5.86,9.89c1.78,4.51 2.42,8.91 7.44,11a10.65,10.65 0 0 0 12.16,-2.72c2.78,-3.21 3.23,-7.95 5.2,-11.66c4.73,-8.91 12.35,-14.94 21.79,-18.22c4.62,-1.61 8.37,-4 9.08,-9.27a10.71,10.71 0 0 0 -7.7,-11.75c9.28,2.66 5.31,17.13 -4,14.46a54.17,54.17 0 0 1 -10.4,-4.2a51.91,51.91 0 0 0 -8,5.19a51.17,51.17 0 0 0 -13.39,15.6l-0.59,1.07c0.46,0.9 0.91,1.8 1.31,2.72a58.81,58.81 0 0 1 2.25,5.77c1,3.07 1.32,2.06 -3.54,2.06c-5.9,0 -4.1,1.15 -3.76,-1.38c0.41,-3 2.19,-6.37 3.73,-9.17a50.35,50.35 0 0 0 -10.71,-14a53.33,53.33 0 0 0 -11.13,-7.79c-1.66,0.85 -3.36,1.62 -5.1,2.32c-1.3,0.52 -3.33,1.67 -4.7,1.63q-2.68,1.13 -0.69,-4l0,-4.15a10.83,10.83 0 0 1 2.74,0.83a54.23,54.23 0 0 1 7.76,3.33a44.46,44.46 0 0 0 5.27,-3.16a53.72,53.72 0 0 0 14.6,-15.19c0.74,-1.16 1.4,-2.36 2,-3.58a53.92,53.92 0 0 1 -2.61,-5.71a15.25,15.25 0 0 1 -1.18,-3.36l-0.39,-1.38l8.31,0c0,1.41 -1.08,3.47 -1.57,4.73a61.8,61.8 0 0 1 -2.55,5.71a52.51,52.51 0 0 0 22,21.9c0.63,-0.33 1.27,-0.66 1.92,-1c1,-0.48 2.11,-0.92 3.18,-1.35c-0.19,-4.58 3.52,-9.51 9.29,-8a37.08,37.08 0 0 1 -21,-15c-4.32,-6.59 -5,-18.48 -14.87,-18.87c-10.58,-0.41 -11.3,12.07 -15.76,18.87a37.24,37.24 0 0 1 -19.66,14.61c-4.12,1.38 -7.58,3.31 -8.83,7.84a10.73,10.73 0 0 0 5.19,12.21c3.42,2.04 7.4,2.69 10.88,4.69z" class="cls-2"/>
  <path fill="#1FB5DA" id="svg_9" d="m367.51,161.34a10.47,10.47 0 0 0 -2,0.68c-0.64,0.23 -1.27,0.48 -1.9,0.73a6.79,6.79 0 0 0 5.3,6.51c-3.35,-0.91 4.19,-8.59 -1.4,-7.92z" class="cls-2"/>
  <path fill="#1FB5DA" id="svg_10" d="m363.59,162.74c0.63,-0.25 1.26,-0.5 1.9,-0.73a10.47,10.47 0 0 1 2,-0.68c5.59,-0.67 -2,7 1.38,7.91c9.3,2.66 13.27,-11.81 4,-14.46c-5.75,-1.55 -9.47,3.38 -9.28,7.96z" class="cls-2"/>
  <path fill="#1FB5DA" id="svg_11" d="m169.75,236.53a114.58,114.58 0 0 1 2.25,-49.53a116.93,116.93 0 0 1 50.72,-68a127.93,127.93 0 0 1 5.81,-17.37l11,8.47a122.38,122.38 0 0 0 -16.83,8.9a132.45,132.45 0 0 0 8.38,88.66a81.83,81.83 0 0 1 16.06,-1.22a118.54,118.54 0 0 1 -4.14,-100.86c2.86,-6.84 -5.89,-10.69 -11,-8.47a131.17,131.17 0 0 0 -77.56,140a71,71 0 0 1 15.31,-0.58z" class="cls-2"/>
  <path fill="#1FB5DA" id="svg_12" d="m396,258.66a119.44,119.44 0 0 1 -58.27,8.65a60.68,60.68 0 0 1 15.8,15.69a129.69,129.69 0 0 0 29.15,-4.06a123.41,123.41 0 0 0 8.88,-16.82l8.47,11a127.78,127.78 0 0 1 -17.35,5.81a120.92,120.92 0 0 1 -20.14,24.29a57.16,57.16 0 0 1 1.27,18.43a131.73,131.73 0 0 0 40.71,-52c2.19,-5.06 -1.66,-13.84 -8.52,-10.99z" class="cls-2"/>
  <path fill="#1FB5DA" id="svg_13" d="m391.56,262.11a123.41,123.41 0 0 1 -8.88,16.82a127.78,127.78 0 0 0 17.32,-5.81l-8.44,-11.01z" class="cls-2"/>
  <path fill="#1FB5DA" id="svg_14" d="m228.5,101.6a127.93,127.93 0 0 0 -5.81,17.4a122.38,122.38 0 0 1 16.83,-8.9l-11.02,-8.5z" class="cls-2"/>
  <path fill="#1FB5DA" id="svg_15" d="m185.37,239.45c-1.65,-0.51 -3.31,-0.94 -5,-1.32q-1.82,2.31 -3.49,4.77l8.49,-3.45z" class="cls-2"/>
  <path fill="#1FB5DA" id="svg_16" d="m344.3,282.9a51.52,51.52 0 0 1 11.7,25.9q3.35,-2.67 6.49,-5.58a59.66,59.66 0 0 0 -9,-20.22q-4.58,0.11 -9.19,-0.1z" class="cls-2"/>
  <path fill="#1FB5DA" id="svg_17" d="m102,305.89a62.23,62.23 0 0 1 53.69,-61.64q-0.74,-3.56 -1.27,-7.16a69.73,69.73 0 0 0 -51.27,35.13c-15.15,27.65 -9.66,63.37 13.63,84.78a70.91,70.91 0 0 0 47.42,18.61c4.86,0.05 7.27,-3.72 7.24,-7.5l-7.24,0a62.23,62.23 0 0 1 -62.2,-62.22z" class="cls-2"/>
  <path fill="#1FB5DA" id="svg_18" d="m304.85,368.12l-7.24,0c0,3.78 2.36,7.56 7.24,7.5a59.9,59.9 0 0 0 58.79,-52.34c0.07,-0.55 0.11,-1.09 0.16,-1.63q-4.11,3.15 -8.45,6a51.76,51.76 0 0 1 -50.5,40.47z" class="cls-2"/>
  <path fill="#1FB5DA" id="svg_19" d="m322.42,263.66c-0.46,-1.45 -1,-2.87 -1.51,-4.28c-1.23,-0.35 -2.47,-0.68 -3.73,-1l5.24,5.28z" class="cls-2"/>
  <path fill="#1FB5DA" id="svg_20" d="m234.49,214.48q-1.81,-3.38 -3.42,-6.85a82.66,82.66 0 0 0 -50.67,30.49c1.67,0.38 3.33,0.81 5,1.32l-8.47,3.45q1.67,-2.46 3.49,-4.77a70.15,70.15 0 0 0 -10.64,-1.6q0.66,3.8 1.56,7.54a62.16,62.16 0 0 1 12.07,2.62a73.7,73.7 0 0 1 51.08,-32.2z" class="cls-2"/>
  <path fill="#1FB5DA" id="svg_21" d="m314.08,262.37a117.75,117.75 0 0 0 23.7,4.93a58.75,58.75 0 0 0 -16.87,-7.93c0.54,1.41 1,2.84 1.51,4.28l-5.24,-5.24c1.26,0.27 2.5,0.6 3.73,1c-10,-26.34 -33.17,-46.79 -61.3,-51.74a83.11,83.11 0 0 0 -12.49,-1.23q2,3.9 4.41,7.66a73.75,73.75 0 0 1 62.55,48.27z" class="cls-2"/>
  <path fill="#1FB5DA" id="svg_22" d="m362.53,303.22q-3.15,2.91 -6.49,5.58a51.55,51.55 0 0 1 -0.68,18.83q4.34,-2.82 8.45,-6a57.16,57.16 0 0 0 -1.28,-18.41z" class="cls-2"/>
  <path fill="#1FB5DA" id="svg_23" d="m164.2,243.65a62.4,62.4 0 0 1 7.11,0.41q-0.9,-3.74 -1.56,-7.54a71,71 0 0 0 -15.37,0.56q0.54,3.6 1.27,7.16a62.67,62.67 0 0 1 8.55,-0.59z" class="cls-2"/>
  <path fill="#1FB5DA" id="svg_24" d="m231.07,207.63q1.61,3.47 3.42,6.85a74.24,74.24 0 0 1 10.28,-0.72c2.28,0 4.53,0.11 6.76,0.32q-2.35,-3.76 -4.41,-7.66a81.83,81.83 0 0 0 -16.05,1.21z" class="cls-2"/>
  <path fill="#1FB5DA" id="svg_25" d="m315.19,265.66a51.7,51.7 0 0 1 29.11,17.24q4.61,0.21 9.23,0.1a60.68,60.68 0 0 0 -15.76,-15.69a117.75,117.75 0 0 1 -23.7,-4.93c0.4,1.08 0.78,2.17 1.12,3.28z" class="cls-2"/>
  <path fill="#1FB5DA" id="svg_26" d="m164.2,360.62c-24.5,-0.27 -46.36,-16.6 -52.84,-40.4a55.22,55.22 0 0 1 25.64,-61.82a53.43,53.43 0 0 1 20.47,-6.75q-1,-3.67 -1.77,-7.4a62.23,62.23 0 0 0 8.54,123.87l7.24,0c-0.07,-3.72 -2.48,-7.45 -7.28,-7.5z" class="cls-2"/>
  <path fill="#1FB5DA" id="svg_27" d="m304.42,258.82q4.76,2 9.66,3.55a73.75,73.75 0 0 0 -62.55,-48.3q2.68,4.28 5.76,8.35a67.11,67.11 0 0 1 47.13,36.4z" class="cls-2"/>
  <path fill="#1FB5DA" id="svg_28" d="m355.35,327.63q-4.67,3 -9.6,5.68a45.18,45.18 0 0 1 -40.91,27.31c-4.78,0.06 -7.2,3.78 -7.24,7.5l7.24,0a51.76,51.76 0 0 0 50.51,-40.49z" class="cls-2"/>
  <path fill="#1FB5DA" id="svg_29" d="m181.39,253.91c3.34,1 6.63,-0.74 8.47,-3.45a67.4,67.4 0 0 1 48.69,-28.94q-2.14,-3.46 -4.05,-7a73.7,73.7 0 0 0 -51.11,32.2a62.16,62.16 0 0 0 -12.07,-2.62q1,4 2.22,8a60.47,60.47 0 0 1 7.85,1.81z" class="cls-2"/>
  <path fill="#1FB5DA" id="svg_30" d="m332.06,281.77a44.33,44.33 0 0 1 17,32.17q3.59,-2.44 7,-5.14a51.52,51.52 0 0 0 -11.74,-25.9q-6.16,-0.28 -12.26,-1.13z" class="cls-2"/>
  <path fill="#1FB5DA" id="svg_31" d="m173.53,252.06q-1.25,-4 -2.22,-8a61.52,61.52 0 0 0 -15.65,0.19q0.77,3.73 1.77,7.4a57,57 0 0 1 16.1,0.41z" class="cls-2"/>
  <path fill="#1FB5DA" id="svg_32" d="m257,222.36l0.28,0.06q-3.07,-4.07 -5.76,-8.35c-2.23,-0.2 -4.48,-0.32 -6.76,-0.32a74.24,74.24 0 0 0 -10.28,0.72q1.92,3.58 4.05,7a63.34,63.34 0 0 1 18.47,0.89z" class="cls-2"/>
  <path fill="#1FB5DA" id="svg_33" d="m348.8,321.92a43,43 0 0 1 -3,11.39q4.92,-2.64 9.6,-5.68a51.55,51.55 0 0 0 0.6,-18.83q-3.39,2.7 -7,5.14a43.89,43.89 0 0 1 -0.2,7.98z" class="cls-2"/>
  <path fill="#1FB5DA" id="svg_34" d="m308,267.65a7.54,7.54 0 0 0 5.24,5.24a46.32,46.32 0 0 1 18.87,8.88q6.09,0.84 12.24,1.12a51.7,51.7 0 0 0 -29.11,-17.24c-0.34,-1.11 -0.72,-2.2 -1.11,-3.28q-4.9,-1.56 -9.66,-3.55a66.5,66.5 0 0 1 3.53,8.83z" class="cls-2"/>
  <path fill="#1FB5DA" id="svg_35" d="m190.36,368.12l-7.25,0c0,3.75 2.41,7.5 7.25,7.5l89.27,0c4.83,0 7.24,-3.75 7.24,-7.5l-96.51,0z" class="cls-2"/>
  <path fill="#1FB5DA" id="svg_36" d="m279.63,360.62l-89.27,0c-4.83,0 -7.24,3.75 -7.25,7.5l103.76,0c0,-3.75 -2.41,-7.5 -7.24,-7.5z" class="cls-2"/>
  <path fill="#1FB5DA" id="svg_37" d="m266.72,332.33a118.38,118.38 0 0 0 23.8,1.12a7.27,7.27 0 0 0 -4,-1.12l-19.8,0z" class="cls-2"/>
  <path fill="#1FB5DA" id="svg_38" d="m175.1,339.83l61.7,0q-5.24,-2 -10.31,-4.45q-3,-1.45 -5.89,-3.05l-45.5,0c-9.65,0 -9.67,15 0,15l90.71,0a133.55,133.55 0 0 1 -29,-7.5l-61.71,0z" class="cls-2"/>
  <path fill="#1FB5DA" id="svg_39" d="m286.5,347.33c8,0 9.39,-10.4 4,-13.88a118.38,118.38 0 0 1 -23.8,-1.12l-46.1,0q2.9,1.6 5.89,3.05q5.07,2.45 10.31,4.45l0,0a133.55,133.55 0 0 0 29,7.5l20.7,0z" class="cls-2"/>
  <path stroke="null" fill="#1FB5DA" id="svg_40" d="m304.615398,388.91l-151.138947,0c-14.555797,0 -14.585964,15 0,15l151.138947,0c14.616132,0 14.616132,-15 0,-15zm-151.15403,7.5l0,0z" class="cls-2"/>
  <path stroke="null" fill="#1FB5DA" id="svg_41" d="m335.121818,410.461825l-150.031575,0c-14.449149,0 -14.479095,15 0,15l150.031575,0c14.509041,0 14.509041,-15 0,-15zm-150.046548,7.5l0,0z" class="cls-2"/>
  <path stroke="null" fill="#1FB5DA" id="svg_42" d="m313.954268,432.013653l-162.212634,0c-15.622275,0 -15.654652,15 0,15l162.212634,0c15.68703,0 15.68703,-15 0,-15zm-162.228823,7.5l0,0z" class="cls-2"/>
 </g>
</svg>