<svg viewBox="80 120 360 310" width="420" height="330" xmlns="http://www.w3.org/2000/svg">

 <title/>

 <g>
  <title>Layer 1</title>
  <path fill="#1FB5DA" id="svg_1" d="m325.57,304.19a59.9,59.9 0 0 0 58.79,-52.34c3.7,-30 -17,-58.47 -46.46,-64.86l5.24,5.24c-9.07,-28.39 -33.17,-50.81 -62.81,-56a82.4,82.4 0 0 0 -82.71,35.25l8.47,-3.45c-31.4,-9.69 -66.35,3.77 -82.26,32.77c-15.16,27.65 -9.62,63.37 13.66,84.79a70.91,70.91 0 0 0 47.42,18.61c9.66,0.11 9.66,-14.89 0,-15c-24.5,-0.27 -46.36,-16.6 -52.84,-40.4a55.22,55.22 0 0 1 25.6,-61.8c13.58,-7.83 29.54,-9.09 44.43,-4.49c3.34,1 6.63,-0.74 8.47,-3.45c14.64,-21.54 41.42,-33.14 67.15,-28.1a67.05,67.05 0 0 1 50.95,45.29a7.54,7.54 0 0 0 5.24,5.24c22.53,4.89 38.5,25.75 35.61,49c-2.74,22.09 -22,38.41 -44,38.7c-9.64,0.13 -9.67,15.13 0,15l0.05,0z" class="cls-1"/>
  <path fill="#1FB5DA" id="svg_2" d="m305.79,315.642251l-4.64,-2.68l3.14,-1.83c8.34,-4.85 0.8,-17.82 -7.57,-13l-8.45,4.91c-0.66,0.38 -1.4,0.77 -2.18,1.18l-3,-1.73l0,-14.41l3,-1.74c0.76,0.4 1.51,0.79 2.18,1.18l8.45,4.91c8.36,4.86 15.92,-8.1 7.57,-13l-3.14,-1.83l3,-1.72l1.87,-1.08c6.75,-3.9 3.12,-13.11 -2.95,-14a6.53,6.53 0 0 0 -1.56,0a7.66,7.66 0 0 0 -3.07,1l-4.77,2.76q0,-1.8 0,-3.6c0,-0.23 0,-0.46 0,-0.68c-0.63,-7.9 -11.79,-8.67 -14.41,-2.28a7.67,7.67 0 0 0 -0.56,3l0,9.77c0,0.74 0,1.57 -0.07,2.42l0,0.1l-3.84,2.22l-6.19,-3.57c-1,-0.61 -2.24,-1.41 -3.51,-2.24c-0.64,-0.42 -1.31,-0.85 -2,-1.26l0,-4.1c0.76,-0.48 1.5,-0.95 2.18,-1.34l8.47,-4.86a8.2,8.2 0 0 0 1.45,-1.05c5.91,-5.39 -1.18,-16.4 -9,-11.9l-3.09,1.77l0,-5.23c0,-9.65 -15,-9.67 -15,0l0,5.32l-3.1,-1.81c-7.22,-4.14 -13.83,4.89 -10.17,10.55a7.43,7.43 0 0 0 2.6,2.41l8.47,4.86c0.68,0.39 1.42,0.86 2.18,1.34l0,4.25c-1.77,1.1 -3.45,2.28 -4.87,3.1l-6.71,3.88l-3.94,-2.28c0,-0.88 -0.07,-1.73 -0.07,-2.52l0,-9.77c0,-9.65 -15,-9.67 -15,0q0,1.8 0,3.6l-4.77,-2.76c-8.38,-4.83 -15.94,8.12 -7.57,13l4.84,2.8l-3.14,1.83c-8.34,4.85 -0.8,17.82 7.57,13l8.45,-4.91c0.66,-0.38 1.4,-0.77 2.18,-1.18l3.2,1.85l0,14.23l-3.2,1.85c-0.76,-0.4 -1.51,-0.79 -2.18,-1.18l-8.45,-4.91c-8.36,-4.86 -15.92,8.1 -7.57,13l3.14,1.83l-4.64,2.68c-8.36,4.83 -0.81,17.79 7.57,13l4.58,-2.64q0,1.8 0,3.6c0,9.65 15,9.67 15,0l0,-9.77c0,-0.77 0,-1.63 0.07,-2.52l2.36,-1.36l7.87,4.54c1.53,0.88 3.36,2.19 5.3,3.38l0,2.39c-0.76,0.48 -1.5,0.95 -2.18,1.34l-8.47,4.86c-8.37,4.8 -0.82,17.77 7.57,13l3.09,-1.77l0,5.55c0,9.65 15,9.67 15,0l0,-5.55l3.09,1.77c8.39,4.81 16,-8.14 7.57,-13l-8.47,-4.86c-0.68,-0.39 -1.42,-0.86 -2.18,-1.34l0,-2.31c1.85,-1.14 3.6,-2.38 5.07,-3.23l8.19,-4.73l2.27,1.31c0,0.88 0.07,1.73 0.07,2.52l0,9.77c0,9.65 15,9.67 15,0q0,-1.8 0,-3.6l4.58,2.64c8.29,4.65 15.85,-8.31 7.49,-13.14zm-50.12,-5.08l-0.1,-0.06l-5.66,-3.27l-1.84,-1.06l-4.82,-2.78l0,-14.34l0.74,-0.43l4.08,-2.36l3.42,-2l4.08,-2.36l0.1,-0.06l4.08,2.36l3.32,1.92l4.18,2.41l0.84,0.48l0,14.34l-5,2.9l-1.74,1l-5.68,3.31z" class="cls-1"/>
  <path stroke="null" fill="#1FB5DA" id="svg_3" d="m370.717533,350.826405l-2.790646,-1.623041l1.888497,-1.108271c5.015945,-2.93722 0.481146,-10.792012 -4.552842,-7.87296l-5.082103,2.973557c-0.396945,0.230133 -0.842005,0.466321 -1.311122,0.714623l-1.804297,-1.047709l0,-8.726874l1.804297,-1.053765c0.457089,0.242245 0.908163,0.478434 1.311122,0.714623l5.082103,2.973557c5.027974,2.943276 9.574802,-4.90546 4.552842,-7.87296l-1.888497,-1.108271l1.804297,-1.041653l1.124678,-0.654061c4.059668,-2.361888 1.876469,-7.939578 -1.774225,-8.478573a3.927353,3.954649 0 0 0 -0.938234,0a4.606971,4.638991 0 0 0 -1.846397,0.605612l-2.868832,1.67149q0,-1.090102 0,-2.180204c0,-0.139291 0,-0.278582 0,-0.411816c-0.378902,-4.784337 -7.090886,-5.250659 -8.666639,-1.380796a4.612985,4.645047 0 0 0 -0.336802,1.816837l0,5.916833c0,0.448153 0,0.950811 -0.0421,1.465582l0,0.060561l-2.3095,1.344459l-3.722866,-2.162036c-0.601432,-0.369424 -1.347208,-0.853913 -2.111027,-1.356572c-0.384917,-0.254357 -0.787876,-0.51477 -1.202865,-0.763072l0,-2.483011c0.457089,-0.290694 0.902148,-0.575332 1.311122,-0.811521l5.094131,-2.943276a4.931745,4.966021 0 0 0 0.872077,-0.635893c3.554465,-3.26425 -0.70969,-9.932042 -5.41289,-7.206787l-1.858426,1.071934l0,-3.167353c0,-5.844159 -9.021484,-5.856271 -9.021484,0l0,3.221858l-1.86444,-1.096158c-4.342341,-2.507235 -8.317808,2.961444 -6.116566,6.38921a4.468642,4.4997 0 0 0 1.563724,1.459526l5.094131,2.943276c0.408974,0.236189 0.854034,0.520827 1.311122,0.811521l0,2.573852c-1.064535,0.666174 -2.074941,1.380796 -2.928975,1.877398l-4.03561,2.349776l-2.369643,-1.380796c0,-0.532939 -0.0421,-1.047709 -0.0421,-1.526143l0,-5.916833c0,-5.844159 -9.021484,-5.856271 -9.021484,0q0,1.090102 0,2.180204l-2.868832,-1.67149c-5.040002,-2.925108 -9.58683,4.917572 -4.552842,7.87296l2.910932,1.695715l-1.888497,1.108271c-5.015945,2.93722 -0.481146,10.792012 4.552842,7.87296l5.082103,-2.973557c0.396945,-0.230133 0.842005,-0.466321 1.311122,-0.714623l1.924583,1.120383l0,8.617864l-1.924583,1.120383c-0.457089,-0.242245 -0.908163,-0.478434 -1.311122,-0.714623l-5.082103,-2.973557c-5.027974,-2.943276 -9.574802,4.90546 -4.552842,7.87296l1.888497,1.108271l-2.790646,1.623041c-5.027974,2.925108 -0.48716,10.773843 4.552842,7.87296l2.75456,-1.598817q0,1.090102 0,2.180204c0,5.844159 9.021484,5.856271 9.021484,0l0,-5.916833c0,-0.466321 0,-0.987148 0.0421,-1.526143l1.41938,-0.823633l4.733272,2.74948c0.920191,0.532939 2.020812,1.326291 3.187591,2.04697l0,1.447413c-0.457089,0.290694 -0.902148,0.575332 -1.311122,0.811521l-5.094131,2.943276c-5.033988,2.906939 -0.493174,10.761731 4.552842,7.87296l1.858426,-1.071934l0,3.361148c0,5.844159 9.021484,5.856271 9.021484,0l0,-3.361148l1.858426,1.071934c5.046017,2.912995 9.622916,-4.929684 4.552842,-7.87296l-5.094131,-2.943276c-0.408974,-0.236189 -0.854034,-0.520827 -1.311122,-0.811521l0,-1.398964c1.11265,-0.690398 2.165156,-1.441357 3.049262,-1.956128l4.92573,-2.864546l1.365251,0.793352c0,0.532939 0.0421,1.047709 0.0421,1.526143l0,5.916833c0,5.844159 9.021484,5.856271 9.021484,0q0,-1.090102 0,-2.180204l2.75456,1.598817c4.985873,2.816097 9.532701,-5.032639 4.504728,-7.957746zm-30.143785,-3.076511l-0.060143,-0.036337l-3.404107,-1.980352l-1.106635,-0.641949l-2.898904,-1.683602l0,-8.684481l0.44506,-0.260413l2.453844,-1.429245l2.056898,-1.211225l2.453844,-1.429245l0.060143,-0.036337l2.453844,1.429245l1.996755,1.162776l2.513987,1.459526l0.505203,0.290694l0,8.684481l-3.007161,1.756276l-1.046492,0.605612l-3.416135,2.004577z" class="cls-1"/>
  <path stroke="null" fill="#1FB5DA" id="svg_4" d="m234.026582,385.420427l-4.041679,-2.179335l2.735102,-1.488128c7.26457,-3.943946 0.696841,-14.490953 -6.593861,-10.571402l-7.360386,3.992737c-0.574894,0.30901 -1.219472,0.626152 -1.898893,0.959558l-2.613155,-1.40681l0,-11.717993l2.613155,-1.414942c0.661999,0.325274 1.315288,0.642416 1.898893,0.959558l7.360386,3.992737c7.281991,3.952078 13.867142,-6.586797 6.593861,-10.571402l-2.735102,-1.488128l2.613155,-1.398678l1.628867,-0.87824c5.879598,-3.171421 2.717681,-10.660853 -2.569602,-11.384587a5.687967,5.310097 0 0 0 -1.358841,0a6.672255,6.228996 0 0 0 -2.674128,0.813185l-4.154916,2.24439q0,-1.463733 0,-2.927465c0,-0.187033 0,-0.374065 0,-0.552966c-0.548763,-6.42416 -10.269698,-7.050312 -12.551854,-1.854061a6.680966,6.237127 0 0 0 -0.487789,2.439554l0,7.944815c0,0.601757 0,1.2767 -0.060974,1.967907l0,0.081318l-3.344838,1.80527l-5.391809,-2.90307c-0.871052,-0.496043 -1.951156,-1.146591 -3.057391,-1.821534c-0.557473,-0.341538 -1.141078,-0.691207 -1.742103,-1.024613l0,-3.334058c0.661999,-0.390329 1.306577,-0.772526 1.898893,-1.089668l7.377807,-3.952078a7.142623,6.668115 0 0 0 1.263025,-0.853844c5.147915,-4.383066 -1.027841,-13.336231 -7.839464,-9.676899l-2.691549,1.439337l0,-4.252956c0,-7.847233 -13.065774,-7.863497 -13.065774,0l0,4.326143l-2.70026,-1.471864c-6.288993,-3.366585 -12.046644,3.976474 -8.858595,8.5791a6.471913,6.041963 0 0 0 2.264734,1.959775l7.377807,3.952078c0.592315,0.317142 1.236893,0.699339 1.898893,1.089668l0,3.456035c-1.541761,0.894503 -3.005128,1.854061 -4.242021,2.520873l-5.844756,3.155157l-3.431943,-1.854061c0,-0.715603 -0.060974,-1.40681 -0.060974,-2.049226l0,-7.944815c0,-7.847233 -13.065774,-7.863497 -13.065774,0q0,1.463733 0,2.927465l-4.154916,-2.24439c-7.299412,-3.927683 -13.884563,6.603061 -6.593861,10.571402l4.21589,2.276917l-2.735102,1.488128c-7.26457,3.943946 -0.696841,14.490953 6.593861,10.571402l7.360386,-3.992737c0.574894,-0.30901 1.219472,-0.626152 1.898893,-0.959558l2.787365,1.504392l0,11.57162l-2.787365,1.504392c-0.661999,-0.325274 -1.315288,-0.642416 -1.898893,-0.959558l-7.360386,-3.992737c-7.281991,-3.952078 -13.867142,6.586797 -6.593861,10.571402l2.735102,1.488128l-4.041679,2.179335c-7.281991,3.927683 -0.705552,14.466558 6.593861,10.571402l3.989416,-2.146808q0,1.463733 0,2.927465c0,7.847233 13.065774,7.863497 13.065774,0l0,-7.944815c0,-0.626152 0,-1.325491 0.060974,-2.049226l2.055682,-1.105931l6.855176,3.691859c1.332709,0.715603 2.926733,1.780875 4.616574,2.748565l0,1.943512c-0.661999,0.390329 -1.306577,0.772526 -1.898893,1.089668l-7.377807,3.952078c-7.290702,3.903287 -0.714262,14.450294 6.593861,10.571402l2.691549,-1.439337l0,4.513176c0,7.847233 13.065774,7.863497 13.065774,0l0,-4.513176l2.691549,1.439337c7.308123,3.911419 13.936826,-6.619324 6.593861,-10.571402l-7.377807,-3.952078c-0.592315,-0.317142 -1.236893,-0.699339 -1.898893,-1.089668l0,-1.878457c1.611445,-0.927031 3.135786,-1.93538 4.416232,-2.626587l7.133913,-3.846364l1.977287,1.065272c0,0.715603 0.060974,1.40681 0.060974,2.049226l0,7.944815c0,7.847233 13.065774,7.863497 13.065774,0q0,-1.463733 0,-2.927465l3.989416,2.146808c7.221018,3.781309 13.806168,-6.757566 6.524177,-10.685248zm-43.657107,-4.130979l-0.087105,-0.048791l-4.930152,-2.659114l-1.602735,-0.861976l-4.198469,-2.260654l0,-11.66107l0.644578,-0.349669l3.553891,-1.919116l2.978997,-1.62637l3.553891,-1.919116l0.087105,-0.048791l3.553891,1.919116l2.891891,1.561315l3.640996,1.959775l0.731683,0.390329l0,11.66107l-4.355258,2.358236l-1.51563,0.813185l-4.947573,2.691642z" class="cls-1"/>
 </g>
</svg>