<svg width="32" height="32" xmlns="http://www.w3.org/2000/svg">
 <title/>
 <desc/>

 <g>
  <title>background</title>
  <rect fill="none" id="canvas_background" height="402" width="582" y="-1" x="-1"/>
 </g>
 <g>
  <title>Layer 1</title>
  <path stroke="null" fill="#aeb2bd" id="pen-angled" d="m26.060042,10.057282l-17.778363,17.707204l0,0l-4.10435,-4.083104l17.78761,-17.697974l4.095103,4.073874l0,0zm1.113197,-1.108732l2.723852,-2.712954c0.614291,-0.61183 0.609755,-1.606369 -0.007561,-2.218811l-1.858469,-1.843765c-0.618482,-0.61357 -1.61497,-0.618349 -2.231436,-0.004983l-2.720922,2.707203l4.094536,4.07331l0,0zm-24.016248,15.933942l-1.007437,4.877811l4.93818,-0.967413l-3.930744,-3.910397l0,0l0,0zm-1.423549,-0.95718l-1.575227,7.835337l7.876137,-1.567067l22.966989,-22.848015c1.235262,-1.228863 1.238255,-3.218286 0.015185,-4.43502l-1.857981,-1.848356c-1.226882,-1.220526 -3.209479,-1.227061 -4.458114,0.015107l-22.966989,22.848015l0,0z"/>
 </g>
</svg>