<svg width="64" height="64" xmlns="http://www.w3.org/2000/svg">

 <g>
  <title>Layer 1</title>
  <path stroke="null" fill="#c1c3cf" id="Fill-1" d="m37.880985,45.034293c-10.7,0 -19.5,-8.7 -19.5,-19.5c0,-10.7 8.7,-19.5 19.5,-19.5s19.5,8.7 19.5,19.5c-0.1,10.8 -8.8,19.5 -19.5,19.5l0,0zm0,-36.1c-9.2,0 -16.7,7.5 -16.7,16.7c0,9.2 7.5,16.7 16.7,16.7s16.7,-7.5 16.7,-16.7c-0.1,-9.2 -7.6,-16.7 -16.7,-16.7l0,0z" class="st0"/>
  <polyline transform="rotate(90 16.37418746948242,44.40879440307618) " fill="#c1c3cf" points="22.124189972877502,52.25879144668579 8.524187684059143,38.75879144668579 10.724188446998596,36.5587944984436 24.224188446998596,50.158785343170166 22.124189972877502,52.25879144668579 " id="Fill-2" class="st0"/>
 </g>
</svg>